# xmcd CD database file
#
# Track frame offsets:
#	150
#	20212
#	43402
#	61590
#	82887
#	101980
#	116767
#	132317
#	145380
#	160930
#	179430
#	203042
#	240605
#
# Disc length: 3429 seconds
#
# Revision: 0
# Processed by: cddbd v1.5.1PL2 Copyright (c) Steve Scherf et al.
# Submitted via: CDex 1.70beta1
#
DISCID=bc0d630d
DTITLE=Allotria Jazz Band - Swing That Music
DYEAR=1992
DGENRE=Jazz
TTITLE0=Swing That Music
TTITLE1=I'm Coming Virginia
TTITLE2=Nane's Tune
TTITLE3=Lover Man
TTITLE4=Margie
TTITLE5=Mean To Me
TTITLE6=Clarinet Marmalade
TTITLE7=Choo-Choo-Ch'Boogie
TTITLE8=If I Had You
TTITLE9=At The Jazzband Ball
TTITLE10=Embraceable You
TTITLE11=Ellingtonia: Medley
TTITLE12=Old Folks
EXTD=YEAR: 1992
EXTT0=
EXTT1=
EXTT2=
EXTT3=
EXTT4=
EXTT5=
EXTT6=
EXTT7=
EXTT8=
EXTT9=
EXTT10=
EXTT11=
EXTT12=
PLAYORDER=
